
<svg version="1.1" id="Capa_1" xmlns="http://www.w3.org/2000/svg" xmlns:xlink="http://www.w3.org/1999/xlink" x="0px" y="0px"
	 viewBox="0 0 411.6 411.6" style="enable-background:new 0 0 411.6 411.6;" xml:space="preserve">
<style type="text/css">
	.st0{fill:#9A9A9A;}
</style>
<g>
	<g>
		<g>
			<path class="st0" d="M284.4,215.8c-0.8,1.2-0.8,2.4-1.2,4c-0.4,5.2,3.6,10,8.8,10.4c5.2,0.4,10-3.6,10.4-8.8c0-1.2,0-2.4,0.4-4.4
				c0-2,0-3.2,0-4.4c0-11.6-2-22.8-5.6-33.6c-4.8-14-13.2-26.4-23.2-36.8c-12.4-12.4-27.6-21.2-44.8-26c-8-2-16.8-3.2-25.2-3.2
				c-2.8,0-5.6,0-8.8,0.4c-2.8,0.4-5.6,0.8-8.4,1.2c-5.2,0.8-8.8,6-7.6,10.8c0.8,5.2,6,8.8,10.8,7.6c2.4-0.4,4.4-0.8,6.8-0.8
				c0.4,0,0.8,0,1.2,0c2,0,4-0.4,6-0.4c22,0,42.4,8.8,56.8,23.6c14.4,14.4,23.2,34,23.6,56v0.8C284.4,213.8,284.4,215,284.4,215.8z"
				/>
			<path class="st0" d="M337.2,224.6c-0.4,5.2,3.6,10,8.8,10.4c5.2,0.4,10-3.6,10.4-8.8c0.4-4.4,0.4-8.8,0.4-13.2
				c0-8.8-0.8-17.2-2-25.6c-5.2-32-20.8-60.8-42.8-82.8c-25.2-25.2-58.8-41.6-96-44.4c-4-0.4-8.4-0.4-12.4-0.4
				c-4.4,0-8.8,0-13.2,0.4s-8.8,0.8-13.2,1.6c-5.2,0.8-8.8,6-7.6,10.8c0.8,5.2,6,8.8,10.8,7.6c2.8-0.4,5.2-0.8,8-1.2
				c1.2,0,2.4-0.4,3.6-0.4c4-0.4,8-0.4,11.6-0.4c13.6,0,26.4,2,38.8,5.6c21.6,6.4,40.8,18,56.4,33.6c12.8,12.8,23.2,28.4,30,45.2
				c6,15.2,9.6,32,9.6,49.6c0,1.2,0,2.8,0,4C337.6,219.4,337.2,221.8,337.2,224.6z"/>
			<path class="st0" d="M350.8,66.2c-38-38-90-61.2-147.6-61.2c-6,0-12,0.4-18,0.8s-12,1.2-18,2.4c-5.2,0.8-8.8,6-7.6,10.8
				c0.8,5.2,6,8.8,10.8,7.6c2.8-0.4,5.2-0.8,8-1.2c2.8-0.4,5.6-0.8,8.4-0.8c5.6-0.4,10.8-0.8,16.4-0.8c52,0,99.2,21.2,133.6,55.2
				c34,34,55.2,81.2,55.2,133.6c0,2.8,0,6,0,8.8c0,2.4-0.4,4.8-0.4,7.6c-0.4,5.2,3.6,10,8.8,10.4c5.2,0.4,10-3.6,10.4-8.8
				c0.4-6,0.8-12,0.8-17.6C411.6,155.8,388.4,103.8,350.8,66.2z"/>
			<path class="st0" d="M396.8,308.6l-70.8-38c-23.6-12.8-24.4-4.4-49.2,22c-6,6.4-17.2,23.2-30.4,20c-27.6-6.8-79.2-47.2-96-65.6
				c-8-8.8-42.4-50.8-42.8-64.4c-0.8-20.8,44.8-31.2,30-70.8L106,41C76.4-27-6.4,81.8,0.4,132.6C18,257.8,237.6,460.2,360,393.4
				C387.2,378.2,424,325,396.8,308.6z"/>
		</g>
	</g>
</g>
</svg>
