<?xml version="1.0" encoding="utf-8"?>
<!-- Generator: Adobe Illustrator 23.0.0, SVG Export Plug-In . SVG Version: 6.00 Build 0)  -->
<svg version="1.1" id="Слой_1" xmlns="http://www.w3.org/2000/svg" xmlns:xlink="http://www.w3.org/1999/xlink" x="0px" y="0px"
	 viewBox="0 0 60 60" style="enable-background:new 0 0 60 60;" xml:space="preserve">
<style type="text/css">
	.st0{fill:#1527B2;}
</style>
<path class="st0" d="M59.3,48.9c-0.2-0.2-0.4-0.3-0.7-0.3h-6.3v-5.7c0-0.4-0.2-0.7-0.6-0.9l-9-3.5c-0.2-0.1-0.5-0.1-0.7,0
	s-0.4,0.3-0.5,0.5l-4.8,13.3h-7.2c-1.2,0-2.8-0.8-3.5-1.7l-8-10.2l0.9-0.7l7.7,9.8l0,0c0.4,0.4,1.4,0.9,2,1l0,0h6.3
	c0.5,0,0.9-0.4,0.9-0.9s-0.4-0.9-0.9-0.9h-6.3c-0.2,0-0.5-0.2-0.7-0.3l-7.6-9.7L31,30.2c0.4-0.3,0.5-0.9,0.2-1.3l-2.3-3
	c-0.2-0.2-0.4-0.3-0.6-0.4c-0.2,0-0.5,0-0.7,0.2l-2,1.5L7.8,4.6C7.6,4.4,7.3,4.3,7,4.3S6.4,4.5,6.2,4.7l-4,6.4
	C2,11.4,2,11.9,2.3,12.2l14.4,18.3c0.2,0.2,0.5,0.4,0.7,0.4s0.4-0.1,0.6-0.2c0.4-0.3,0.5-0.9,0.2-1.3l-14-17.8l2.9-4.7L24,28.4
	L14.3,36L3.6,22.4c-0.7-0.9-1.1-2.2-1.3-3.6L13.5,33c0.3,0.4,0.9,0.5,1.3,0.2c0.4-0.3,0.5-0.9,0.2-1.3L2.4,15.8
	c-0.2-0.3-0.6-0.4-0.9-0.3c-0.3,0.1-0.6,0.3-0.7,0.7c-0.7,2.2-0.1,5.3,1.3,7.3l5,30.2c0,0.3,0.4,0.6,0.9,0.6h2.8
	c0.5,0,0.9-0.4,0.9-0.9v-0.1l1.1-16.2l3,3.8l8.6,10.9c1.1,1.4,3.3,2.4,5,2.4h29.2c0.5,0,0.9-0.4,0.9-0.9v-3.8
	C59.5,49.3,59.4,49.1,59.3,48.9z M27.9,27.8l1.2,1.5l-10.7,8.4l0,0l0,0L16.7,39l-1.2-1.5L27.9,27.8z M9.8,52.4h-1l-4.3-26l6.6,8.4
	L9.8,52.4z M42.9,40.6l7.5,2.9v8.9H38.6L42.9,40.6z M57.7,52.4h-5.3v-1.9h5.3V52.4L57.7,52.4z"/>
</svg>
