<?xml version="1.0" encoding="utf-8"?>
<!-- Generator: Adobe Illustrator 23.0.0, SVG Export Plug-In . SVG Version: 6.00 Build 0)  -->
<svg version="1.1" id="Слой_1" xmlns="http://www.w3.org/2000/svg" xmlns:xlink="http://www.w3.org/1999/xlink" x="0px" y="0px"
	 viewBox="0 0 60 60" style="enable-background:new 0 0 60 60;" xml:space="preserve">
<style type="text/css">
	.st0{fill:#1527B2;}
	.st1{fill:none;stroke:#1527B2;stroke-width:1.5;stroke-miterlimit:10;}
</style>
<g>
	<g>
		<g>
			<path class="st0" d="M36.8,56.8c-1.9,0-4.1-0.5-6.6-1.4c-5.4-2-11.3-6.1-16.5-11.3C8.4,38.8,4.4,32.9,2.4,27.5
				c-1.9-4.9-1.9-8.9,0-10.8c0.3-0.3,0.5-0.6,0.8-0.8c1.7-1.8,3.6-3.8,6.1-3.7c1.7,0.1,3.4,1.2,5.1,3.3c5.1,6.3,2.8,8.6,0.1,11.2
				L14,27.2c-0.4,0.4-1.3,2.4,6.4,10.1c2.5,2.5,4.6,4.3,6.3,5.4c1.1,0.7,3,1.7,3.8,1l0.5-0.5c2.6-2.7,4.9-4.9,11.2,0.1
				c2.1,1.7,3.2,3.4,3.3,5.1c0.1,2.5-1.9,4.4-3.7,6.1c-0.3,0.3-0.6,0.5-0.8,0.8C40.1,56.3,38.7,56.8,36.8,56.8z M9.1,13.7
				c-1.8,0-3.4,1.7-4.8,3.2c-0.3,0.3-0.6,0.6-0.8,0.9c-1.4,1.4-1.2,5,0.4,9.2c2,5.2,5.9,10.9,11,16s10.8,9,16,11
				c4.2,1.6,7.8,1.7,9.2,0.4c0.3-0.3,0.6-0.6,0.9-0.8c1.5-1.5,3.3-3.1,3.2-5c-0.1-1.3-1-2.6-2.7-4c-5.3-4.2-6.8-2.7-9.2-0.3
				l-0.5,0.5c-1.2,1.2-3.1,0.9-5.6-0.8c-1.8-1.2-4-3.1-6.6-5.6c-6.3-6.3-8.4-10.2-6.4-12.2l0.5-0.5c2.5-2.4,4-3.9-0.3-9.2
				c-1.4-1.8-2.8-2.7-4-2.7C9.2,13.7,9.2,13.7,9.1,13.7z"/>
		</g>
	</g>
	<g>
		<g>
			<path class="st1" d="M53.8,7.2C47.7,1,37.8,1,31.6,7.1s-6.2,16-0.1,22.2c0.1,0.1,0.5,0.5,0.6,0.7c1.5,1.7,2.9,4,2.2,7.1
				c-0.2,0.9,0.8,1.6,1.6,1.1c1.5-1,3.4-2.4,5-4.3c4.6,0.5,9.3-0.9,12.8-4.4C59.8,23.3,59.9,13.4,53.8,7.2z"/>
			<g>
				<circle class="st0" cx="42.2" cy="11" r="1.7"/>
				<path class="st0" d="M45.1,24.7h-0.5c-0.1,0-0.2-0.1-0.2-0.2c0,0.7,0-7.5,0-8.7c0-0.2-0.1-0.3-0.3-0.3h-3.7
					c-0.3,0-0.5,0.2-0.5,0.5v1.4c0,0.3,0.2,0.5,0.5,0.5l0,0c0.2,0,0.4,0.2,0.4,0.4v6c0,0.2-0.2,0.4-0.4,0.4h-0.3
					c-0.3,0-0.5,0.2-0.5,0.5v1.5c0,0.3,0.2,0.5,0.5,0.5H45c0.3,0,0.5-0.2,0.5-0.5v-1.5C45.6,24.9,45.3,24.7,45.1,24.7z"/>
			</g>
		</g>
	</g>
</g>
</svg>
