<?xml version="1.0" encoding="utf-8"?>
<!-- Generator: Adobe Illustrator 23.0.0, SVG Export Plug-In . SVG Version: 6.00 Build 0)  -->
<svg version="1.1" id="Слой_1" xmlns="http://www.w3.org/2000/svg" xmlns:xlink="http://www.w3.org/1999/xlink" x="0px" y="0px"
	 viewBox="0 0 74 74" style="enable-background:new 0 0 74 74;" xml:space="preserve">
<style type="text/css">
	.st0{fill:none;stroke:#1527B2;stroke-width:1.5;stroke-miterlimit:10;}
	.st1{fill:#FFFFFF;stroke:#1527B2;stroke-width:1.5;stroke-miterlimit:10;}
	.st2{fill:#1527B2;}
</style>
<g>
	<path class="st0" d="M34.6,25.3h34.1c2,0,3.7,1.6,3.7,3.7v21.9c0,2-1.6,3.7-3.7,3.7H49.2v4c0,0.8-0.9,1.1-1.5,0.6l-4.6-4.6h-8.5
		c-2,0-3.7-1.6-3.7-3.7V29C30.9,27,32.5,25.3,34.6,25.3z"/>
	<path class="st1" d="M43.1,30.2c0-11.4-9.3-20.7-20.7-20.7S1.6,18.8,1.6,30.2c0,10,7.1,18.4,16.6,20.3l6.2,6.2
		c0.6,0.6,1.6,0.2,1.6-0.6v-5.5C35.7,48.9,43.1,40.4,43.1,30.2z"/>
	<g>
		<path class="st2" d="M22.4,41.2L22.4,41.2c-0.7,0-1.2-0.5-1.2-1.2l0,0l0,0c0-0.7,0.5-1.2,1.2-1.2l0,0c0.7,0,1.2,0.5,1.2,1.2l0,0
			l0,0C23.6,40.7,23,41.2,22.4,41.2z"/>
		<path class="st2" d="M51.6,47.3c-0.3,0-0.6-0.1-0.9-0.4l-6.1-6.1c-0.5-0.5-0.5-1.2,0-1.7s1.2-0.5,1.7,0l5.2,5.2L63,33
			c0.5-0.5,1.2-0.5,1.7,0s0.5,1.2,0,1.7L52.5,46.9C52.3,47.2,51.9,47.3,51.6,47.3z"/>
		<path class="st2" d="M22.4,36.3c-0.7,0-1.2-0.5-1.2-1.2v-0.4c0-1.6,1.1-3,2.6-3.5c2-0.6,3.5-2.5,3.5-4.7c0-1.3-0.5-2.5-1.5-3.4
			c-0.9-0.9-2.2-1.5-3.4-1.5l0,0c-2.7,0-4.9,2.2-4.9,4.9c0,0.7-0.5,1.2-1.2,1.2c-0.7,0-1.2-0.5-1.2-1.2c0-4,3.3-7.3,7.3-7.3l0,0
			c1.9,0,3.7,0.8,5.1,2.2c1.4,1.4,2.2,3.2,2.2,5.1c0,3.2-2.1,6.1-5.2,7c-0.5,0.2-0.9,0.6-0.9,1.2v0.4C23.6,35.8,23,36.3,22.4,36.3z"
			/>
	</g>
</g>
</svg>
