<?xml version="1.0" encoding="utf-8"?>
<!-- Generator: Adobe Illustrator 23.0.0, SVG Export Plug-In . SVG Version: 6.00 Build 0)  -->
<svg version="1.1" id="Layer_1" xmlns="http://www.w3.org/2000/svg" xmlns:xlink="http://www.w3.org/1999/xlink" x="0px" y="0px"
	 viewBox="0 0 512 512" style="enable-background:new 0 0 512 512;" xml:space="preserve">
<style type="text/css">
	.st0{fill:#9A9A9A;}
</style>
<path class="st0" d="M307.2,0H204.8C106,0,25.6,80.4,25.6,179.2V256c0,69.4,40,132.3,102.4,162c1.8,31.1,3.5,62.2,5.3,93.3
	c27.9-25.4,55.7-50.7,83.6-76.1h90.3c98.8,0,179.2-80.4,179.2-179.2v-76.8C486.4,80.4,406,0,307.2,0z M273.1,128
	c-2.5,0-5.1,0.1-7.6,0.4c-4.7,0.5-8.9-2.9-9.4-7.5c-0.5-4.7,2.9-8.9,7.5-9.4c3.1-0.3,6.3-0.5,9.5-0.5c47.1,0,85.3,38.3,85.3,85.3
	c0,3.2-0.2,6.3-0.5,9.5c-0.5,4.6-4.8,8.1-9.4,7.5c-4.6-0.5-8.1-4.8-7.5-9.4c0.3-2.5,0.4-5.1,0.4-7.6
	C341.3,158.6,310.7,128,273.1,128z M324.3,196.3c0,4.6-3.9,8.5-8.5,8.5c-4.7,0-8.5-3.9-8.5-8.5c0-18.8-15.3-34.1-34.1-34.1
	c-4.7,0-8.5-3.8-8.5-8.5s3.8-8.5,8.5-8.5C301.3,145.1,324.3,168.1,324.3,196.3z M384.8,321.5c-2.5,11-8,21-16,29
	c-10.9,10.9-25.7,16.5-43.4,16.5c-4.7,0-9.7-0.4-14.8-1.2c-40.8-6.4-97.6-26.4-134.6-63.3l-0.5-0.5c-36.9-37-56.9-93.8-63.3-134.6
	c-3.8-24.3,1.5-44.4,15.3-58.2c8-8,18-13.5,29-16c1.1-0.3,2.3-0.3,3.4-0.1l41.6,7.7c3.4,0.6,6.1,3.3,6.8,6.7l12.1,60.3
	c0.6,2.8-0.3,5.7-2.3,7.7l-24.4,24.4c20.2,43.1,43.1,66.1,84.4,84.6l24.5-24.5c2-2,4.9-2.9,7.7-2.3l60.3,12.1
	c3.4,0.7,6.1,3.4,6.7,6.8l7.7,41.6C385.1,319.2,385,320.4,384.8,321.5z M389.4,223.9c-1.1,4.6-6,7.5-10.6,6.3
	c-4.4-1.2-7.1-5.8-6-10.2c1.8-7.7,2.7-15.7,2.7-23.6c0-56.5-45.9-102.4-102.4-102.4c-2.6,0-5.3,0.1-7.9,0.3
	c-4.7,0.4-8.8-3.2-9.2-7.9c-0.4-4.7,3.2-8.8,7.9-9.2c3-0.2,6.1-0.3,9.2-0.3c65.9,0,119.5,53.6,119.5,119.5
	C392.6,205.6,391.5,214.9,389.4,223.9z"/>
</svg>
