<?xml version="1.0" encoding="utf-8"?>
<!-- Generator: Adobe Illustrator 23.0.0, SVG Export Plug-In . SVG Version: 6.00 Build 0)  -->
<svg version="1.1" id="Слой_1" xmlns="http://www.w3.org/2000/svg" xmlns:xlink="http://www.w3.org/1999/xlink" x="0px" y="0px"
	 viewBox="0 0 55 55" style="enable-background:new 0 0 55 55;" xml:space="preserve">
<style type="text/css">
	.st0{fill:none;stroke:#1527B2;stroke-width:1.5;stroke-miterlimit:10;}
</style>
<path class="st0" d="M49.1,25.4c-2.2,3-3.5,5-4.2,6.3c-0.2,0.3-0.5,1.1-1.4,1.6c-0.5,0.3-1,0.4-1.5,0.4c-1.3,0-2.5-0.8-3-2
	c-1.2-3.1-3.1-5.1-5-7.2c-0.5-0.5-0.9-1-1.4-1.5l0,0l0,0c0,0-3.3,2.9-2.3,4.8c0.8,1.5,3.2,1,4,2.7c0.1,0.3,0.2,0.7,0.2,1.2
	c-0.3,2.3,2.8,2.9,3.8,2.8c1.1-0.1,2.7,1.8,1.9,2.6s-2.4,0.9-2.2,3c0.1,0.6,2,0.5,2,1.5s-1,2-0.2,3.1c0.2,0.2,0.3,0.4,0.5,0.6
	c-3.6,3.3-8.5,5.4-13.8,5.4C15.1,50.9,6,41.7,6,30.5c0-0.7,0.1-2.5,0.5-4.7c0.3-1.4,1-4.8,1.8-4.8c0.9,0,0,4.7,2.9,7.6
	c2.8,2.7,7.4,2.2,7.9,4.5c0.6,2.5-3,2.5-2.7,4.4c0.2,1.9,4.9,2.4,3.8,4.2c-1.4,2.3,0.9,2.5,0.3,5.4c-0.4,1.6,1.9,1.9,2.8,0.7
	c0.6-0.9,0.5-2,1.8-3.4c1.6-1.7,5.3-2,4.9-4.8c-0.7-4.6-5.2-5.4-7.2-6.4c-2.2-1.2-1.7-4.2-2.2-5.6c-0.7-2-3,0.6-4.2-0.6
	c-2-1.9,0.4-4.6,2.1-4.5c3.6,0.1,4.7,3.6,6,3.5c1.3-0.1,2.1-1.9,2.3-2.8c0.5-2.1-0.8-1.1-1.3-2.2c-0.7-1.4,2.4-2.8,3.6-3.9
	c0.2-0.2,0.3-0.3,0.4-0.5c0.4-0.7-0.1-1.2-0.9-1.7c-1.6-1-4.5-1.7-4.7-3.3c-0.1-0.9,1.7-1.4,3.7-1.5c0.3,0,0.7,0,1,0.1
	c0.2-1,0.4-1.9,0.8-2.8c-1-0.1-2-0.2-3-0.2C13.6,7.2,3.1,17.7,3.1,30.5s10.4,23.3,23.3,23.3C41,53.8,49.3,40,49.7,30.5
	C49.7,28.5,49.4,26.8,49.1,25.4z M40.8,1.3c-6.6,0.6-11.1,7-9.9,13.5c1.2,6.6,7.2,8.6,10.3,16c0.3,0.7,1.2,0.7,1.5,0
	C46,22.6,53.1,21,53.1,12.5C53.1,5.9,47.5,0.7,40.8,1.3z M41.9,18.4c-3.3,0-5.9-2.6-5.9-5.9s2.6-5.9,5.9-5.9s5.9,2.6,5.9,5.9
	S45.2,18.4,41.9,18.4z"/>
</svg>
