<?xml version="1.0" encoding="utf-8"?>
<!-- Generator: Adobe Illustrator 23.0.0, SVG Export Plug-In . SVG Version: 6.00 Build 0)  -->
<svg version="1.1" id="Capa_1" xmlns="http://www.w3.org/2000/svg" xmlns:xlink="http://www.w3.org/1999/xlink" x="0px" y="0px"
	 viewBox="0 0 32.8 25" style="enable-background:new 0 0 32.8 25;" xml:space="preserve">
<style type="text/css">
	.st0{fill:#9B9B9B;}
</style>
<g>
	<g>
		<path class="st0" d="M29.9,0H2.9C1.3,0,0,1.3,0,2.9v19.2C0,23.7,1.3,25,2.9,25h27.1c1.6,0,2.9-1.3,2.9-2.9V2.9
			C32.8,1.3,31.5,0,29.9,0z M29.5,1.9L16.5,15L3.3,1.9H29.5z M1.9,21.7V3.3l9.3,9.2L1.9,21.7z M3.3,23.1l9.3-9.3l3.2,3.2
			c0.4,0.4,1,0.4,1.4,0l3.2-3.2l9.2,9.2H3.3z M30.9,21.7l-9.2-9.2l9.2-9.2V21.7z"/>
	</g>
</g>
</svg>
