<?xml version="1.0" encoding="utf-8"?>
<!-- Generator: Adobe Illustrator 23.0.0, SVG Export Plug-In . SVG Version: 6.00 Build 0)  -->
<svg version="1.1" id="Слой_1" xmlns="http://www.w3.org/2000/svg" xmlns:xlink="http://www.w3.org/1999/xlink" x="0px" y="0px"
	 viewBox="0 0 25 24.7" style="enable-background:new 0 0 25 24.7;" xml:space="preserve">
<style type="text/css">
	.st0{fill:#9B9B9B;}
</style>
<g>
	<path  class="st0" d="M0,7.5c0.1-0.6,0.1-1.2,0.3-1.8c0.6-3.3,2.9-5.5,6.3-5.6c4-0.1,8-0.1,12,0c3.6,0.1,6.2,2.8,6.4,6.4c0.1,3.8,0.1,7.7,0,11.6
		c-0.1,3.6-2.7,6.3-6.4,6.4c-4,0.1-8,0.1-12,0c-3.6-0.1-6.1-2.8-6.4-6.5c0-0.3-0.1-0.6-0.1-0.9C0,13.9,0,10.7,0,7.5z M12.5,22.4
		c1.8,0,3.7,0.1,5.5,0c2.9-0.1,4.6-1.8,4.7-4.7c0.1-3.6,0.1-7.2,0-10.7c-0.1-2.9-1.8-4.6-4.7-4.7c-3.6-0.1-7.3-0.1-10.9,0
		C4.2,2.3,2.4,4.1,2.4,6.9c-0.1,3.6-0.1,7.2,0,10.9c0.1,2.8,1.8,4.5,4.7,4.6C8.9,22.5,10.7,22.4,12.5,22.4z"/>
	<path  class="st0" d="M12.5,6C9,6,6.1,8.8,6.1,12.3c0,3.5,2.9,6.4,6.4,6.4c3.5,0,6.4-2.9,6.4-6.4C18.9,8.8,16,6,12.5,6z M12.5,16.5
		c-2.3,0-4.2-1.9-4.2-4.2s1.9-4.2,4.2-4.2s4.2,1.9,4.2,4.2S14.8,16.5,12.5,16.5z"/>
	<path  class="st0" d="M20.8,5.7c0,0.8-0.7,1.5-1.5,1.5c-0.8,0-1.5-0.7-1.5-1.5c0-0.8,0.7-1.5,1.5-1.5C20.1,4.2,20.8,4.8,20.8,5.7z"/>
</g>
</svg>
