<?xml version="1.0" encoding="utf-8"?>
<!-- Generator: Adobe Illustrator 23.0.0, SVG Export Plug-In . SVG Version: 6.00 Build 0)  -->
<svg version="1.1" id="Layer_1" xmlns="http://www.w3.org/2000/svg" xmlns:xlink="http://www.w3.org/1999/xlink" x="0px" y="0px"
	 viewBox="0 0 45 45" style="enable-background:new 0 0 45 45;" xml:space="preserve">
<style type="text/css">
	.st0{fill:#9A9A9A;}
	.st1{fill:#FFFFFF;}
</style>
<g>
	<path class="st0" d="M43.2,27.2c0.3-1.4,0.5-2.9,0.5-4.4c0-11.4-9.4-20.7-21-20.7c-1.2,0-2.4,0.1-3.6,0.3c-1.9-1.2-4.1-1.8-6.5-1.8
		C5.9,0.6,0.4,6,0.4,12.6c0,2.2,0.6,4.3,1.7,6.1c-0.3,1.3-0.4,2.7-0.4,4.2c0,11.4,9.4,20.4,21,20.4c1.3,0,2.6-0.1,3.8-0.3
		c1.7,0.9,3.7,1.8,5.8,1.8c6.7,0,12.2-5.4,12.2-12C44.5,30.6,44,28.8,43.2,27.2z"/>
	<path class="st1" d="M32.3,31.2c-0.8,1.2-2,2.1-3.6,2.7c-1.6,0.7-3.4,1-5.5,1c-2.6,0-4.7-0.4-6.3-1.3C15.7,32.9,14.7,32,14,31
		c-0.7-1.1-1.1-2.1-1.1-3.1c0-0.6,0.2-1.1,0.7-1.5c0.4-0.4,1-0.6,1.7-0.6c0.6,0,1,0.2,1.4,0.5s0.7,0.8,1,1.5
		c0.3,0.8,0.7,1.4,1.1,1.9s0.9,0.9,1.6,1.3c0.7,0.3,1.6,0.5,2.7,0.5c1.6,0,2.8-0.3,3.8-1s1.5-1.5,1.5-2.5c0-0.8-0.3-1.4-0.8-1.9
		s-1.2-0.9-2-1.1c-0.8-0.3-1.9-0.5-3.3-0.8c-1.9-0.4-3.4-0.9-4.7-1.4s-2.3-1.3-3-2.2c-0.7-0.9-1.1-2.1-1.1-3.5
		c0-1.3,0.4-2.5,1.2-3.5s1.9-1.8,3.4-2.4c1.5-0.5,3.2-0.8,5.2-0.8c1.6,0,3,0.2,4.1,0.5c1.2,0.4,2.1,0.8,2.9,1.5
		c0.8,0.6,1.3,1.2,1.7,1.9s0.5,1.3,0.5,1.9s-0.2,1.1-0.7,1.6c-0.4,0.5-1,0.7-1.7,0.7c-0.6,0-1.1-0.1-1.4-0.4s-0.7-0.7-1-1.4
		c-0.5-0.9-1-1.6-1.7-2.1s-1.7-0.8-3.2-0.8c-1.4,0-2.5,0.3-3.3,0.8s-1.3,1.2-1.3,2c0,0.5,0.1,0.9,0.4,1.2c0.3,0.4,0.7,0.6,1.2,0.9
		s1,0.4,1.5,0.6c0.5,0.1,1.3,0.3,2.5,0.6c1.5,0.3,2.8,0.7,4,1c1.2,0.4,2.2,0.8,3,1.4c0.8,0.5,1.5,1.2,1.9,2.1
		c0.5,0.8,0.7,1.8,0.7,3.1C33.5,28.7,33.1,30,32.3,31.2z"/>
</g>
</svg>
